<svg xmlns="http://www.w3.org/2000/svg" viewBox="0 0 100 120" width="100" height="120">
  <!-- NDH North District Hospital Logo - Simplified -->
  <defs>
    <style>
      .ndh-red { fill: #E31837; }
    </style>
  </defs>
  
  <!-- Top circle (head) -->
  <circle class="ndh-red" cx="50" cy="18" r="12"/>
  
  <!-- Left wing arrow -->
  <polygon class="ndh-red" points="5,18 5,28 38,45 38,58 46,58 46,38 50,35 46,32 46,28 38,32 12,18"/>
  
  <!-- Right wing arrow -->
  <polygon class="ndh-red" points="95,18 95,28 62,45 62,58 54,58 54,38 50,35 54,32 54,28 62,32 88,18"/>
  
  <!-- Center vertical bar -->
  <rect class="ndh-red" x="44" y="32" width="12" height="55"/>
  
  <!-- Bottom anchor/arrow -->
  <polygon class="ndh-red" points="32,82 50,100 68,82 56,82 56,87 50,92 44,87 44,82"/>
</svg>